# xmcd CD database file generated by Grip 3.0.0
# 
# Track frame offsets:
#       150
#       10207
#       23352
#       37130
#       51707
#       65272
#       79105
#       91650
#       105157
#       117327
#       130540
#       142977
#       154982
#       166005
#       178602
#       191092
#       202780
#       214060
#       226042
#       236920
# 
# Disc length: 3322 seconds
# 
# Revision: 1
# Processed by: cddbd v1.4PL0 Copyright (c) Steve Scherf et al.
# Submitted via: Grip 3.0.0
# 
DISCID=fa0cf814
DTITLE=John Lee Hooker - Testament - Trouble Blues
DYEAR=1900
DGENRE=Blues
TTITLE0=Dimples
TTITLE1=Unfriendly Woman
TTITLE2=Time Is Marchin'
TTITLE3=I'm So Worried, Baby
TTITLE4=Every Night
TTITLE5=The Road Is So Rough
TTITLE6=Trouble Blues
TTITLE7=Baby Lee
TTITLE8=Everybody Rockin'
TTITLE9=I'm So Excited
TTITLE10=Crawlin' Black Spider
TTITLE11=Little Wheel
TTITLE12=Little Fine Woman
TTITLE13=Rosie Mae
TTITLE14=You Can Lead Me, Baby
TTITLE15=I Love You, Honey
TTITLE16=You've Taken My Woman
TTITLE17=Mama, You Got A Daughter
TTITLE18=Maudie
TTITLE19=I'm In The Mood
EXTD=
EXTT0=
EXTT1=
EXTT2=
EXTT3=
EXTT4=
EXTT5=
EXTT6=
EXTT7=
EXTT8=
EXTT9=
EXTT10=
EXTT11=
EXTT12=
EXTT13=
EXTT14=
EXTT15=
EXTT16=
EXTT17=
EXTT18=
EXTT19=
PLAYORDER=
